<svg width="60" height="60" viewBox="0 0 60 60" fill="none" xmlns="http://www.w3.org/2000/svg">
<rect width="60" height="60" rx="30" fill="#3ED2FF"/>
<path d="M9.77795 12.6135H13.2392C15.7795 12.6135 16.9385 14.0606 16.9385 15.5864C16.9385 16.6246 16.4305 17.5369 15.5096 18.0245V18.056C16.8909 18.402 17.7483 19.5031 17.7483 20.8873C17.7483 22.7277 16.367 24.3636 13.5885 24.3636H9.77795V12.6135ZM12.9851 17.5369C14.1759 17.5369 14.8428 16.892 14.8428 15.9639C14.8428 15.083 14.2712 14.3909 12.9851 14.3909H11.9849V17.5212C11.969 17.5369 12.9851 17.5369 12.9851 17.5369ZM13.3185 22.6176C14.7475 22.6176 15.5572 22.0828 15.5572 20.9031C15.5572 19.9121 14.7792 19.2986 13.5885 19.2986H11.969V22.6176H13.3185ZM19.3677 13.3056C19.3677 12.582 19.9393 12 20.6855 12C21.4318 12 22.0351 12.5348 22.0351 13.3056C22.0351 13.9977 21.4635 14.564 20.6855 14.564C19.9075 14.564 19.3677 14.0291 19.3677 13.3056ZM19.6059 15.9325H21.7652V24.3636H19.6059V15.9325ZM24.6548 22.303V17.5998H23.1147V15.9167H24.6548V13.9662L26.8141 13.3528V15.9167H29.4021L28.8622 17.5998H26.8141V21.7682C26.8141 22.5704 27.084 22.8378 27.6556 22.8378C28.1636 22.8378 28.6241 22.6491 28.9734 22.4131L29.6243 23.8603C29.0051 24.285 27.9731 24.5052 27.1158 24.5052C25.5757 24.5681 24.6548 23.7187 24.6548 22.303ZM30.7834 15.9325H32.5934L32.8315 16.892C33.6095 16.1212 34.2922 15.7437 35.1813 15.7437C35.5624 15.7437 36.0228 15.8538 36.3721 16.0898L35.5941 17.883C35.2131 17.647 34.8638 17.6155 34.6256 17.6155C34.0541 17.6155 33.5777 17.8515 32.895 18.4492V24.4108H30.7357V15.9325H30.7834ZM37.2136 13.3056C37.2136 12.582 37.7852 12 38.5314 12C39.2776 12 39.8492 12.5663 39.8492 13.3056C39.8492 13.9977 39.2776 14.564 38.4996 14.564C37.7217 14.564 37.2136 14.0291 37.2136 13.3056ZM37.4518 15.9325H39.611V24.3636H37.4518C37.4518 24.3794 37.4518 15.9325 37.4518 15.9325ZM43.9614 20.1323L40.8812 15.9325H43.1199L45.1204 18.6852L47.1685 15.9325H49.4072L46.2794 20.1323L49.439 24.3636H47.2003L45.1521 21.5323L43.0722 24.3636H40.8336C40.8336 24.3794 43.9614 20.1323 43.9614 20.1323Z" fill="white"/>
<path d="M9.77795 47.939H23.6288V44.8881H14.4457C15.6966 39.8542 23.4152 38.7559 23.4152 33.1118C23.4152 30.061 21.3407 27.8644 17.039 27.8644C14.2932 27.8644 12.0051 28.6881 10.3881 29.4813L11.3644 32.2881C12.8593 31.6169 14.4763 30.9457 16.4593 30.9457C18.0763 30.9457 19.5712 31.6169 19.5712 33.4779C19.6322 37.6271 10.6017 37.9322 9.77795 47.939Z" fill="#2762D6"/>
<path d="M36.5034 40.1593V27.8644H33.9102L24.056 40.6779V43.1186H32.9644V48H36.5339V43.1186H39.4933V40.1593H36.5034ZM32.9644 37.261V40.0678H30.5848C29.8526 40.0678 28.5102 40.1288 28.0526 40.1288L33.0865 33.3254C33.117 33.9356 32.9644 35.7051 32.9644 37.261Z" fill="#2762D6"/>
<path fill-rule="evenodd" clip-rule="evenodd" d="M44.578 39.1526C41.4872 39.1526 38.934 36.5994 38.934 33.5086C38.934 30.4178 41.4872 27.8645 44.578 27.8645C47.6688 27.8645 50.2221 30.4178 50.2221 33.5086C50.2221 36.5994 47.6688 39.1526 44.578 39.1526ZM39.9642 33.4862C39.9642 30.9329 42.0248 28.8724 44.578 28.8724C47.1313 28.8724 49.1918 30.9553 49.1918 33.4862C49.1918 36.0394 47.1313 38.1 44.578 38.1C42.0248 38.1 39.9642 36.0394 39.9642 33.4862Z" fill="#2762D6"/>
<path d="M44.578 28.8724C42.0248 28.8724 39.9642 30.9329 39.9642 33.4862C39.9642 36.0394 42.0248 38.1 44.578 38.1C47.1313 38.1 49.1918 36.0394 49.1918 33.4862C49.1918 30.9553 47.1313 28.8724 44.578 28.8724Z" fill="white"/>
<path d="M47.893 33.3742H45.0709V30.5521H44.3094V34.1357H47.893V33.3742Z" fill="#2762D6"/>
</svg>
