<svg width="61" height="60" viewBox="0 0 61 60" fill="none" xmlns="http://www.w3.org/2000/svg">
<path d="M35.7642 58.8281H25.2173V48.75H35.7642V58.8281ZM28.7329 56.4844H32.2485V52.2656H28.7329V56.4844Z" fill="#8B8992"/>
<path d="M30.6666 52.2656H32.2487V56.4844H30.6666V58.8281H35.7643V48.75H30.6666V52.2656Z" fill="#57555C"/>
<path d="M56.9753 44.0625H4.35811V15.9375H56.9753V44.0625Z" fill="#9BC9FF"/>
<path d="M56.9752 15.9375H30.6666V44.0625H56.9752V15.9375Z" fill="#009AE5"/>
<path d="M39.276 56.4844H21.6979V60H39.276V56.4844Z" fill="#005ECE"/>
<path d="M50.7874 13.8684C49.7173 13.8684 48.6615 13.5879 47.7099 13.0385C46.2815 12.2137 45.2596 10.8821 44.8328 9.28883C44.4059 7.69566 44.625 6.0316 45.4497 4.6032C46.2745 3.17481 47.6061 2.15305 49.1994 1.72613L55.164 0.12793L56.7621 6.09254C57.189 7.6857 56.9699 9.34977 56.1452 10.7782C55.3204 12.2066 53.9889 13.2284 52.3957 13.6552C51.8637 13.7979 51.3236 13.8684 50.7874 13.8684Z" fill="#E0E0E2"/>
<path d="M56.7655 6.09254L55.1674 0.12793H55.1673L47.7135 13.0384C48.6651 13.5877 49.7209 13.8684 50.791 13.8683C51.3273 13.8683 51.8673 13.7977 52.3992 13.6552C53.9924 13.2283 55.324 12.2066 56.1488 10.7782C56.9734 9.34977 57.1924 7.6857 56.7655 6.09254Z" fill="#ACABB1"/>
<path d="M33.5895 48.0495L24.4557 42.7761L39.1041 17.4043L48.238 22.6777L33.5895 48.0495Z" fill="#3ED2FF"/>
<path d="M29.0179 45.4131L33.5846 48.0498L48.2327 22.6792L43.666 20.0426L29.0179 45.4131Z" fill="#D1EEFC"/>
<path d="M47.831 26.5044L35.9908 19.6685L46.1943 8.10352L52.7448 11.8855L47.831 26.5044Z" fill="#00AEEF"/>
<path d="M52.7427 11.8852L49.4674 9.99426L41.9088 23.0861L47.8289 26.5041L52.7427 11.8852Z" fill="#00759E"/>
<path d="M56.9753 52.2656H4.35811V40.5469H56.9753V52.2656Z" fill="#005ECE"/>
<path d="M56.9713 40.5469H30.6627V52.2656H56.9713V40.5469Z" fill="#003F8A"/>
<path d="M39.276 56.4844H30.4869V60H39.276V56.4844Z" fill="#003F8A"/>
</svg>
