<svg width="61" height="60" viewBox="0 0 61 60" fill="none" xmlns="http://www.w3.org/2000/svg">
<circle cx="30.3334" cy="30" r="30" fill="#56C1EA"/>
<path d="M60.3332 30C60.3332 46.5685 46.9032 60 30.3366 60C30.3307 60 30.3351 30 30.3351 30L30.3366 0C46.9032 0 60.3332 13.4315 60.3332 30Z" fill="#00AEEF"/>
<path d="M11.0424 18.852C11.0424 15.8477 13.4779 13.4121 16.4823 13.4121C19.4867 13.4121 21.9223 15.8476 21.9223 18.852V40.8026C21.9223 43.807 19.4867 46.2426 16.4823 46.2426C13.4779 46.2426 11.0424 43.807 11.0424 40.8026V18.852Z" fill="white"/>
<path d="M12.1941 22.3845C10.2629 20.083 10.5631 16.6517 12.8646 14.7205C15.1661 12.7893 18.5974 13.0895 20.5286 15.391L34.785 32.3812C36.7162 34.6827 36.416 38.114 34.1145 40.0452C31.813 41.9764 28.3818 41.6762 26.4506 39.3747L12.1941 22.3845Z" fill="white"/>
<path d="M40.1526 15.8615C42.0838 13.56 45.5151 13.2598 47.8166 15.191C50.1181 17.1221 50.4183 20.5534 48.4871 22.8549L34.6755 39.315C32.7443 41.6165 29.313 41.9167 27.0115 39.9855C24.71 38.0543 24.4098 34.623 26.341 32.3215L40.1526 15.8615Z" fill="white"/>
<rect x="38.804" y="34.2354" width="10.9753" height="11.9297" rx="5.48765" fill="white"/>
</svg>
