<svg width="61" height="60" viewBox="0 0 61 60" fill="none" xmlns="http://www.w3.org/2000/svg">
<ellipse cx="30.3334" cy="29.9687" rx="30" ry="29.9687" fill="#3ED2FF"/>
<path d="M42.222 0.0625H17.8255C15.4584 0.0625 13.5327 1.98672 13.5327 4.35134V55.711C13.5327 58.0757 15.4584 59.9999 17.8255 59.9999H42.222C44.5891 59.9999 46.5153 58.0757 46.5153 55.711V4.35134C46.5153 1.98672 44.5891 0.0625 42.222 0.0625V0.0625Z" fill="#3D4EC6"/>
<path d="M21.7993 3.24289C21.567 2.89784 21.4313 2.48279 21.4313 2.03577C21.4313 1.15827 21.9543 0.40424 22.7048 0.0625H17.826C15.4551 0.0625 13.5327 1.98286 13.5327 4.35134V55.711C13.5327 58.0795 15.4551 59.9993 17.826 59.9993H23.0126V7.00148C23.0126 5.65271 22.553 4.36236 21.7993 3.24289Z" fill="#2B3894"/>
<path d="M16.0171 27.1523V55.7119C16.0171 56.7096 16.8265 57.5182 17.8247 57.5182H42.2212C43.2193 57.5182 44.0288 56.7096 44.0288 55.7119C44.0288 54.7319 44.0288 40.4251 44.0288 27.1523H16.0171Z" fill="#E6F7FE"/>
<path d="M16.0171 27.1523V55.7119C16.0171 56.7096 16.8265 57.5182 17.8247 57.5182H22.1009V27.1523H16.0171Z" fill="#D5F1FE"/>
<path d="M25.8456 35.7673C25.8456 37.33 24.5776 38.5966 23.0134 38.5966C21.4491 38.5966 20.1811 37.33 20.1811 35.7673C20.1811 34.2047 21.4491 32.9375 23.0134 32.9375C24.5776 32.9375 25.8456 34.2047 25.8456 35.7673Z" fill="#3D4EC6"/>
<path d="M25.8456 46.258C25.8456 47.8206 24.5776 49.0878 23.0134 49.0878C21.4491 49.0878 20.1811 47.8206 20.1811 46.258C20.1811 44.6954 21.4491 43.4287 23.0134 43.4287C24.5776 43.4287 25.8456 44.6954 25.8456 46.258Z" fill="#3D4EC6"/>
<path d="M22.6933 32.957C21.2797 33.1163 20.1811 34.313 20.1811 35.7676C20.1811 37.3302 21.4491 38.5968 23.0134 38.5968C23.9889 38.5968 24.8485 38.1041 25.3578 37.3545C22.9157 37.6295 21.3608 34.9176 22.6933 32.957Z" fill="#2B3894"/>
<path d="M22.6933 43.4473C21.2797 43.606 20.1811 44.8032 20.1811 46.2573C20.1811 47.8204 21.4491 49.0871 23.0134 49.0871C23.9889 49.0871 24.8485 48.5943 25.3578 47.8447C22.9306 48.1175 21.352 45.4205 22.6933 43.4473Z" fill="#2B3894"/>
<path d="M34.586 34.5902H30.5647C29.9799 34.5902 29.5053 34.1162 29.5053 33.5319C29.5053 32.9471 29.9799 32.4736 30.5647 32.4736H34.586C35.1709 32.4736 35.6454 32.9471 35.6454 33.5319C35.6454 34.1162 35.1709 34.5902 34.586 34.5902Z" fill="#11DFEF"/>
<path d="M38.6073 39.059H30.5647C29.9793 39.059 29.5053 38.5849 29.5053 38.0007C29.5053 37.4159 29.9793 36.9424 30.5647 36.9424H38.6073C39.1922 36.9424 39.6667 37.4159 39.6667 38.0007C39.6667 38.5849 39.1922 39.059 38.6073 39.059Z" fill="#11DFEF"/>
<path d="M34.586 45.0814H30.5647C29.9799 45.0814 29.5053 44.608 29.5053 44.0231C29.5053 43.4383 29.9799 42.9648 30.5647 42.9648H34.586C35.1709 42.9648 35.6454 43.4383 35.6454 44.0231C35.6454 44.608 35.1709 45.0814 34.586 45.0814Z" fill="#11DFEF"/>
<path d="M38.6073 49.5502H30.5647C29.9793 49.5502 29.5053 49.0767 29.5053 48.4919C29.5053 47.9076 29.9793 47.4336 30.5647 47.4336H38.6073C39.1922 47.4336 39.6667 47.9076 39.6667 48.4919C39.6667 49.0767 39.1922 49.5502 38.6073 49.5502Z" fill="#11DFEF"/>
<path d="M42.2094 2.54688H38.5838C38.2417 2.54688 37.9647 2.82357 37.9647 3.16476C37.9647 3.98439 37.2937 4.65464 36.4738 4.65464H23.5497C22.7292 4.65464 22.0583 3.98439 22.0583 3.16476C22.0583 2.82357 21.7813 2.54688 21.4392 2.54688H17.8135C16.8148 2.54688 16.0053 3.35548 16.0053 4.35259V27.4349H44.0176V4.35259C44.0176 3.35548 43.2081 2.54688 42.2094 2.54688Z" fill="#00AEEF"/>
<path d="M22.1035 3.52194C22.0748 3.40729 22.0583 3.28823 22.0583 3.16531C22.0583 2.82357 21.7813 2.54688 21.4392 2.54688H17.8135C16.8148 2.54688 16.0053 3.35548 16.0053 4.35259V27.4349H22.1035V3.52194Z" fill="#D1EEFC"/>
<path d="M42.213 2.54688H38.5874C38.2453 2.54688 37.9683 2.82357 37.9683 3.16476C37.9683 3.98439 37.2973 4.65464 36.4774 4.65464H29.3491L44.0212 23.027V4.35259C44.0212 3.35548 43.2118 2.54688 42.213 2.54688Z" fill="#D1EEFC"/>
<path d="M25.4579 10.9574H20.5726C19.9877 10.9574 19.5132 10.4839 19.5132 9.89911C19.5132 9.3143 19.9877 8.84082 20.5726 8.84082H25.4579C26.0428 8.84082 26.5173 9.3143 26.5173 9.89911C26.5173 10.4834 26.0428 10.9574 25.4579 10.9574Z" fill="white"/>
</svg>
