<svg width="61" height="60" viewBox="0 0 61 60" fill="none" xmlns="http://www.w3.org/2000/svg">
<path d="M54.6666 13.5H6.66663V42.5H54.6666V13.5Z" fill="#B7E5FF"/>
<path d="M39.6666 53.5H21.6666V58.5H39.6666V53.5Z" fill="#2762D6"/>
<path d="M27.6666 53.4999V48.5H33.6666V53.4999" fill="#2195F2"/>
<path d="M54.6666 7.49996V0.5H6.66663V7.49996" fill="#2762D6"/>
<path d="M54.6666 42.5002H6.66663V48.5002H54.6666V42.5002Z" fill="#2762D6"/>
<path d="M32.6666 44.5H28.6666V46.5H32.6666V44.5Z" fill="#B7E5FF"/>
<path d="M36.6664 35.4999H24.8645L22.8645 26.4999H20.6665V24.5H24.4684L26.4684 33.5H36.6664V35.4999Z" fill="#2762D6"/>
<path d="M36.4878 31.5H27.8478L26.4477 24.5H37.8877L36.4878 31.5ZM29.4878 29.4999H34.8479L35.4479 26.4999H28.8878L29.4878 29.4999Z" fill="#2762D6"/>
<path d="M28.6665 37.5H26.6665V39.5H28.6665V37.5Z" fill="#2762D6"/>
<path d="M34.6665 37.5H32.6665V39.5H34.6665V37.5Z" fill="#2762D6"/>
<path d="M41.6666 6.5H34.6666V17.5C34.6666 19.709 36.4576 21.5 38.6666 21.5C40.8755 21.5 42.6665 19.709 42.6665 17.5V14.5L41.6666 6.5Z" fill="#00AEEF"/>
<path d="M54.6666 6.5H48.6666L50.6666 14.5V17.5C50.6666 19.709 52.4576 21.5 54.6666 21.5C56.8756 21.5 58.6666 19.709 58.6666 17.5V14.5L54.6666 6.5Z" fill="#00AEEF"/>
<path d="M26.6666 6.5V17.5C26.6666 19.709 28.4576 21.5 30.6666 21.5C32.8756 21.5 34.6665 19.709 34.6665 17.5V6.5H26.6666Z" fill="white"/>
<path d="M48.6666 6.5H41.6666L42.6666 14.5V17.5C42.6666 19.709 44.4576 21.5 46.6665 21.5C48.8755 21.5 50.6665 19.709 50.6665 17.5V14.5L48.6666 6.5Z" fill="white"/>
<path d="M6.66659 6.5L2.66663 14.5V17.5C2.66663 19.709 4.4576 21.5 6.66659 21.5C8.87557 21.5 10.6665 19.709 10.6665 17.5V14.5L12.6666 6.5H6.66659Z" fill="#00AEEF"/>
<path d="M19.6666 6.5L18.6666 14.5V17.5C18.6666 19.709 20.4576 21.5 22.6666 21.5C24.8756 21.5 26.6666 19.709 26.6666 17.5V6.5H19.6666Z" fill="#00AEEF"/>
<path d="M12.6668 6.5L10.6668 14.5V17.5C10.6668 19.709 12.4577 21.5 14.6667 21.5C16.8757 21.5 18.6667 19.709 18.6667 17.5V14.5L19.6666 6.5H12.6668Z" fill="white"/>
<path d="M32.6666 42.4998H54.6666V29.1787C48.6216 35.4628 41.0366 40.0557 32.6666 42.4998Z" fill="#1FB7F0"/>
</svg>
