<svg width="169" height="216" viewBox="0 0 169 216" fill="none" xmlns="http://www.w3.org/2000/svg">
<path d="M72.6334 72.297C72.1288 72.5185 71.6242 72.7646 71.1196 73.0354C71.0335 73.0846 70.9474 73.1338 70.8489 73.1831C70.4182 73.4292 69.9751 73.6876 69.5444 73.9584C69.4336 74.0322 69.3228 74.0938 69.2121 74.1676C68.7198 74.4876 68.2398 74.8199 67.7599 75.1891C67.7353 75.2137 67.6983 75.226 67.6614 75.2506C67.6122 75.2875 67.5629 75.3368 67.5137 75.3737C66.9107 75.829 66.3199 76.309 65.7292 76.8259C65.7046 76.8505 65.6677 76.8751 65.6431 76.912C65.0524 77.4289 64.4739 77.9827 63.9078 78.5612C63.8709 78.5981 63.8217 78.6473 63.7848 78.6842C63.231 79.2504 62.6894 79.8534 62.1479 80.4687C62.0741 80.5549 62.0003 80.641 61.9264 80.7272C61.4095 81.3302 60.905 81.9579 60.4127 82.5978C60.3635 82.6594 60.3265 82.7086 60.2773 82.7701C60.2403 82.8194 60.2034 82.8809 60.1542 82.9424C59.6989 83.5455 59.2558 84.1731 58.8251 84.8131C58.7512 84.9238 58.6774 85.0346 58.6035 85.1454C58.1605 85.8222 57.7174 86.4991 57.299 87.2129C57.2867 87.2252 57.2867 87.2375 57.2744 87.2498C56.8559 87.9513 56.4621 88.6651 56.0683 89.3912C56.0068 89.502 55.9452 89.6251 55.8837 89.7358C55.5145 90.4496 55.1576 91.1634 54.813 91.9018C54.7515 92.0495 54.6777 92.1849 54.6161 92.3326C54.2715 93.071 53.9516 93.8217 53.6439 94.5847C53.607 94.6832 53.5577 94.794 53.5208 94.9047C53.2254 95.6677 52.9301 96.4308 52.6716 97.2061C52.647 97.2676 52.6224 97.3292 52.6101 97.3907C52.3393 98.1907 52.0932 99.0029 51.8471 99.8152C51.8102 99.9628 51.761 100.111 51.724 100.246C51.5025 101.046 51.2933 101.846 51.1087 102.646C51.0964 102.707 51.0717 102.769 51.0594 102.83C51.0471 102.917 51.0348 102.99 51.0102 103.076C50.8133 103.95 50.641 104.824 50.4933 105.698C50.481 105.796 50.4564 105.907 50.4441 106.006C50.2964 106.929 50.161 107.864 50.0626 108.799C49.9641 109.685 49.9026 110.559 49.8657 111.408C49.8534 111.691 49.8534 111.962 49.841 112.245C49.8287 112.811 49.8164 113.377 49.8164 113.931C49.8164 114.03 49.8164 114.128 49.8164 114.227C49.8164 114.497 49.8411 114.743 49.8534 115.002C49.8657 115.396 49.878 115.802 49.9149 116.183C49.9395 116.54 49.9764 116.885 50.0134 117.242C50.0503 117.623 50.0872 118.005 50.1364 118.374C50.1856 118.719 50.2348 119.051 50.2841 119.383C50.3456 119.74 50.4072 120.109 50.4687 120.454C50.5302 120.774 50.6041 121.094 50.6779 121.414C50.7517 121.758 50.8379 122.091 50.9241 122.423C50.961 122.534 50.9733 122.669 51.0102 122.78C51.121 123.161 51.2317 123.543 51.3548 123.912C51.3671 123.937 51.3671 123.949 51.3794 123.974C51.5517 124.49 51.7486 124.995 51.9455 125.487C51.9825 125.573 52.0193 125.672 52.0563 125.758C52.2655 126.238 52.487 126.706 52.7086 127.161C52.7578 127.247 52.807 127.333 52.8439 127.42C53.0901 127.875 53.3362 128.33 53.6069 128.749C53.6193 128.761 53.6193 128.773 53.6316 128.786C53.9023 129.204 54.1731 129.598 54.4684 129.979C54.5177 130.053 54.5792 130.127 54.6284 130.189C54.9238 130.558 55.2192 130.915 55.5391 131.247C55.6007 131.308 55.6622 131.37 55.7238 131.444C56.0561 131.788 56.3883 132.108 56.7452 132.404L56.7575 132.416C57.1021 132.711 57.4713 132.982 57.8405 133.241C57.9144 133.29 57.9759 133.339 58.0497 133.388C58.4189 133.634 58.7882 133.856 59.1697 134.053C59.2435 134.09 59.3174 134.127 59.3912 134.164C59.7973 134.361 60.2035 134.557 60.6219 134.717L84.8172 143.763C84.3988 143.603 83.9803 143.418 83.5742 143.209C83.5003 143.172 83.4265 143.135 83.3527 143.098C82.9712 142.902 82.5897 142.668 82.2328 142.434C82.1589 142.385 82.0974 142.335 82.0236 142.286C81.6544 142.028 81.2852 141.757 80.9406 141.462L80.9282 141.449C80.5714 141.154 80.239 140.822 79.9068 140.489C79.8452 140.428 79.7837 140.366 79.7222 140.293C79.4145 139.96 79.1068 139.603 78.8114 139.234C78.7622 139.16 78.7007 139.086 78.6514 139.025C78.3561 138.643 78.073 138.25 77.8146 137.831C77.8023 137.819 77.8023 137.807 77.79 137.794C77.5193 137.363 77.2731 136.92 77.027 136.465C76.9778 136.379 76.9285 136.293 76.8916 136.194C76.6577 135.739 76.4362 135.271 76.2393 134.791C76.2024 134.705 76.1655 134.607 76.1285 134.521C75.9316 134.028 75.7348 133.524 75.5625 133.007C75.5502 132.982 75.5501 132.97 75.5378 132.945C75.3778 132.465 75.2425 131.973 75.1071 131.468C75.021 131.136 74.9348 130.792 74.861 130.459C74.7871 130.139 74.7132 129.832 74.6517 129.499C74.5779 129.155 74.5287 128.786 74.4671 128.429C74.4179 128.096 74.3564 127.764 74.3195 127.42C74.2702 127.05 74.2333 126.669 74.1963 126.287C74.1594 125.943 74.1226 125.598 74.0979 125.241C74.0733 124.847 74.061 124.454 74.0363 124.06C74.024 123.703 74.0118 123.346 73.9995 122.989C73.9872 122.435 74.0118 121.869 74.0241 121.303C74.0364 121.02 74.0364 120.749 74.0487 120.478C74.0856 119.617 74.1472 118.755 74.2456 117.869C74.3441 116.934 74.4671 116.011 74.6271 115.076C74.6394 114.977 74.6517 114.866 74.6763 114.768C74.824 113.894 74.9963 113.02 75.1932 112.147C75.2301 111.999 75.2548 111.864 75.2917 111.716C75.4763 110.916 75.6855 110.104 75.907 109.316C75.9439 109.168 75.9932 109.021 76.0301 108.873C76.264 108.061 76.5101 107.249 76.7932 106.449C76.8178 106.387 76.8424 106.326 76.8547 106.264C77.1254 105.489 77.4085 104.713 77.7039 103.963C77.7408 103.852 77.79 103.753 77.8269 103.643C78.1346 102.88 78.4669 102.129 78.7992 101.378C78.8607 101.23 78.9222 101.095 78.9961 100.96C79.3407 100.221 79.6975 99.5075 80.0668 98.7937C80.1283 98.6829 80.1899 98.5599 80.2514 98.4491C80.6452 97.723 81.039 96.9969 81.4574 96.2954C81.4697 96.2831 81.4698 96.2708 81.4821 96.2585C81.9005 95.557 82.3436 94.8678 82.7866 94.1909C82.8604 94.0802 82.9343 93.9694 83.0081 93.8586C83.4389 93.2187 83.8819 92.591 84.3373 91.988C84.4234 91.8772 84.5095 91.7665 84.5957 91.6557C85.088 91.0157 85.5925 90.3881 86.1094 89.7727C86.1832 89.6866 86.2571 89.6005 86.331 89.5143C86.8602 88.899 87.4139 88.2959 87.9678 87.7298C88.0047 87.6929 88.0539 87.6437 88.0909 87.6067C88.657 87.0283 89.2354 86.4745 89.8261 85.9576C89.8507 85.933 89.8876 85.9084 89.9123 85.8838C90.503 85.3669 91.0937 84.8869 91.6968 84.4316C91.7706 84.37 91.8568 84.3085 91.9306 84.247C92.4106 83.8901 92.8905 83.5455 93.3828 83.2255C93.4936 83.1516 93.6044 83.0901 93.7151 83.0163C94.1459 82.7455 94.5766 82.4871 95.0196 82.2409C95.1058 82.1917 95.1919 82.1425 95.2904 82.0932C95.7949 81.8225 96.2872 81.5764 96.8041 81.3548C96.9148 81.3056 97.038 81.2564 97.1487 81.2071C97.6041 81.0102 98.0594 80.8379 98.5148 80.678C98.6009 80.6533 98.6748 80.6164 98.7609 80.5918C99.1793 80.4564 99.5855 80.3334 100.004 80.2226C103.105 79.435 105.96 79.5826 108.471 80.518L84.3003 71.4724C81.7897 70.5371 78.9222 70.3894 75.8332 71.177C75.4147 71.2878 75.0086 71.4109 74.5902 71.5462C74.5656 71.5586 74.5409 71.5586 74.5163 71.5709C74.4548 71.5955 74.4056 71.6201 74.344 71.6324C73.8887 71.7924 73.4333 71.9647 72.978 72.1616C72.8672 72.1985 72.7442 72.2477 72.6334 72.297Z" fill="url(#paint0_linear_15470_1847)"/>
<path d="M74.3077 117.82C74.4061 116.885 74.5292 115.962 74.6892 115.026C74.7015 114.928 74.7138 114.817 74.7384 114.719C74.8861 113.845 75.0584 112.971 75.2553 112.097C75.2923 111.95 75.3168 111.814 75.3537 111.667C75.5383 110.867 75.7476 110.054 75.9691 109.267C76.006 109.119 76.0553 108.971 76.0922 108.824C76.326 108.012 76.5722 107.199 76.8552 106.399C76.8798 106.338 76.9044 106.276 76.9167 106.215C77.1875 105.439 77.4705 104.664 77.7659 103.913C77.8028 103.803 77.852 103.704 77.889 103.593C78.1966 102.83 78.529 102.08 78.8612 101.329C78.9228 101.181 78.9843 101.046 79.0581 100.91C79.4027 100.172 79.7596 99.4583 80.1288 98.7445C80.1903 98.6337 80.2519 98.5106 80.3134 98.3999C80.7073 97.6738 81.1011 96.9477 81.5195 96.2462C81.5318 96.2339 81.5318 96.2215 81.5441 96.2092C81.9626 95.5077 82.4056 94.8186 82.8487 94.1417C82.9225 94.0309 82.9963 93.9202 83.0702 93.8094C83.5009 93.1694 83.944 92.5418 84.3993 91.9388C84.4855 91.828 84.5716 91.7172 84.6577 91.6065C85.15 90.9665 85.6546 90.3389 86.1715 89.7235C86.2454 89.6374 86.3192 89.5512 86.3931 89.4651C86.9222 88.8497 87.4761 88.2467 88.0299 87.6806C88.0668 87.6436 88.116 87.5944 88.1529 87.5575C88.719 86.9791 89.2974 86.4253 89.8882 85.9084C89.9128 85.8838 89.9497 85.8591 89.9743 85.8345C90.5651 85.3176 91.1558 84.8377 91.7588 84.3823C91.8327 84.3208 91.9188 84.2593 91.9927 84.1977C92.4726 83.8408 92.9526 83.4962 93.4449 83.1763C93.5556 83.1024 93.6664 83.0409 93.7772 82.967C94.2079 82.6963 94.6387 82.4378 95.0817 82.1917C95.1679 82.1425 95.254 82.0932 95.3524 82.044C95.857 81.7733 96.3493 81.5271 96.8662 81.3056C96.977 81.2564 97.1 81.2072 97.2108 81.1579C97.6661 80.961 98.1215 80.7887 98.5768 80.6287C98.663 80.6041 98.7368 80.5672 98.823 80.5426C99.2414 80.4072 99.6475 80.2841 100.066 80.1734C102.97 79.435 105.666 79.5211 108.053 80.3087L108.065 80.2964L84.3009 71.4724C81.7903 70.5371 78.9228 70.3894 75.8337 71.177C75.4153 71.2878 75.0091 71.4109 74.5907 71.5462C74.5661 71.5586 74.5415 71.5586 74.5169 71.5709C74.4553 71.5955 74.4061 71.6201 74.3446 71.6324C73.8892 71.7924 73.4339 71.9647 72.9785 72.1616C72.8554 72.2108 72.7447 72.26 72.6216 72.3093C72.1171 72.5308 71.6125 72.7769 71.1079 73.0477C71.0218 73.0969 70.9356 73.1461 70.8371 73.1954C70.4064 73.4415 69.9633 73.7 69.5326 73.9707C69.4218 74.0445 69.3111 74.1061 69.2003 74.1799C68.708 74.4999 68.2281 74.8322 67.7481 75.2014C67.7235 75.226 67.6865 75.2383 67.6496 75.2629C67.6004 75.2998 67.5512 75.3491 67.5019 75.386C66.8989 75.8413 66.3082 76.3213 65.7175 76.8382C65.6929 76.8628 65.656 76.8874 65.6313 76.9244C65.0406 77.4412 64.4621 77.9951 63.896 78.5735C63.8591 78.6104 63.8099 78.6596 63.773 78.6965C63.2192 79.2627 62.6777 79.8657 62.1362 80.481C62.0623 80.5672 61.9885 80.6533 61.9146 80.7395C61.3977 81.3425 60.8932 81.9702 60.4009 82.6101C60.3517 82.6717 60.3147 82.7209 60.2655 82.7824C60.2286 82.8317 60.1917 82.8932 60.1424 82.9547C59.6871 83.5578 59.244 84.1854 58.8133 84.8254C58.7394 84.9361 58.6656 85.0469 58.5918 85.1577C58.1487 85.8345 57.7057 86.5114 57.2872 87.2252C57.2749 87.2375 57.275 87.2498 57.2627 87.2621C56.8442 87.9636 56.4504 88.6774 56.0565 89.4035C55.995 89.5143 55.9335 89.6374 55.872 89.7481C55.5028 90.4619 55.1459 91.1757 54.8013 91.9141C54.7398 92.0618 54.6659 92.1972 54.6043 92.3449C54.2598 93.0833 53.9398 93.834 53.6321 94.597C53.5952 94.6955 53.5459 94.8063 53.509 94.917C53.2136 95.6801 52.9183 96.4431 52.6598 97.2184C52.6352 97.2799 52.6106 97.3415 52.5983 97.403C52.3276 98.203 52.0814 99.0152 51.8353 99.8275C51.7984 99.9752 51.7492 100.123 51.7123 100.258C51.4907 101.058 51.2815 101.858 51.0969 102.658C51.0846 102.72 51.0599 102.781 51.0476 102.843C51.0353 102.929 51.023 103.003 50.9984 103.089C50.8015 103.963 50.6292 104.836 50.4816 105.71C50.4693 105.809 50.4446 105.919 50.4323 106.018C50.2846 106.941 50.1492 107.876 50.0508 108.812L74.1846 118.768C74.2708 118.423 74.2708 118.128 74.3077 117.82Z" fill="url(#paint1_linear_15470_1847)"/>
<path d="M1.3036 121.192C7.14937 65.159 43.7624 11.6241 83.0952 1.6186C122.416 -8.37459 149.552 28.9399 143.719 84.9854C137.873 141.019 101.272 194.541 61.952 204.547C22.6069 214.54 -4.54217 177.226 1.3036 121.192ZM94.8975 97.3908C96.7312 79.7673 88.1902 68.0266 75.8341 71.1648C63.4657 74.3154 51.9464 91.1512 50.1127 108.775C48.279 126.398 56.8199 138.139 69.1884 134.988C81.5445 131.85 93.0637 115.014 94.8975 97.3908Z" fill="url(#paint2_linear_15470_1847)"/>
<path d="M83.0813 1.61858C43.7485 11.6241 7.13543 65.1467 1.28966 121.192C1.28966 121.242 1.27734 121.291 1.27734 121.352L50.0865 108.947C50.0865 108.898 50.0988 108.848 50.0988 108.787C51.9325 91.1635 63.4517 74.3154 75.8202 71.1771C88.1886 68.0389 96.7296 79.7673 94.8835 97.4031C94.8835 97.4523 94.8713 97.5139 94.859 97.5631L143.668 85.1577C143.668 85.1085 143.68 85.047 143.68 84.9977C149.551 28.9399 122.402 -8.37461 83.0813 1.61858Z" fill="url(#paint3_linear_15470_1847)"/>
<path d="M152.494 24.9772C152.1 24.4973 151.706 24.0296 151.3 23.5743C151.066 23.3158 150.833 23.0574 150.599 22.7989C150.168 22.3313 149.725 21.8759 149.282 21.4329C149.073 21.2236 148.864 21.0021 148.642 20.7929C148.014 20.1899 147.374 19.5991 146.722 19.0453C146.685 19.0084 146.648 18.9715 146.611 18.9469C145.922 18.3561 145.208 17.8023 144.495 17.2608C144.273 17.0885 144.039 16.9285 143.805 16.7686C143.301 16.3993 142.796 16.0548 142.279 15.7102C142.009 15.5256 141.726 15.3533 141.442 15.181C140.95 14.8733 140.458 14.5779 139.953 14.2949C139.67 14.1349 139.387 13.9749 139.092 13.8149C138.55 13.5318 138.009 13.2611 137.467 13.0026C137.209 12.8796 136.963 12.7565 136.704 12.6334C135.892 12.2642 135.08 11.9196 134.243 11.612L110.023 2.56641C110.86 2.87408 111.672 3.21867 112.484 3.58788C112.743 3.71095 113.001 3.83402 113.247 3.95708C113.801 4.21553 114.343 4.48628 114.872 4.76934C115.167 4.92933 115.45 5.08932 115.733 5.24931C116.238 5.53237 116.73 5.82773 117.223 6.1354C117.506 6.3077 117.776 6.48 118.059 6.6646C118.576 7.00919 119.081 7.35379 119.585 7.72299C119.819 7.88298 120.041 8.04297 120.275 8.21527C121.001 8.75677 121.702 9.31058 122.391 9.90131C122.428 9.93823 122.465 9.96285 122.502 9.99977C123.154 10.5659 123.794 11.1443 124.422 11.7473C124.644 11.9566 124.853 12.1781 125.062 12.3873C125.505 12.8303 125.948 13.2857 126.391 13.7534C126.625 14.0118 126.859 14.2703 127.093 14.5287C127.499 14.9841 127.905 15.4517 128.299 15.9317C128.52 16.2024 128.742 16.4732 128.963 16.7439C129.382 17.2731 129.788 17.8146 130.182 18.3561C130.354 18.59 130.539 18.8238 130.711 19.0699C131.277 19.8699 131.831 20.6821 132.36 21.519C132.409 21.6052 132.458 21.6913 132.508 21.7775C132.988 22.5405 133.455 23.3158 133.898 24.1158C134.071 24.4111 134.218 24.7065 134.391 25.0019C134.723 25.6049 135.055 26.2202 135.363 26.8479C135.535 27.1925 135.707 27.5371 135.88 27.894C136.175 28.5093 136.47 29.1247 136.754 29.7523C136.914 30.1092 137.074 30.4538 137.221 30.823C137.517 31.5122 137.8 32.226 138.083 32.9275C138.206 33.2352 138.329 33.5305 138.44 33.8382C138.821 34.8597 139.203 35.8935 139.547 36.9518C139.596 37.0995 139.633 37.2472 139.683 37.3949C139.978 38.3179 140.273 39.2532 140.544 40.2009C140.679 40.6685 140.803 41.1362 140.926 41.6039C141.073 42.133 141.221 42.6746 141.356 43.2037C141.479 43.696 141.59 44.1883 141.713 44.6929C141.836 45.2344 141.972 45.7882 142.082 46.342C142.193 46.8466 142.292 47.3635 142.39 47.8681C142.501 48.4342 142.612 48.988 142.71 49.5541C142.809 50.071 142.895 50.6002 142.981 51.1294C143.079 51.7078 143.165 52.2862 143.252 52.8647C143.325 53.3938 143.399 53.9354 143.473 54.4769C143.547 55.0676 143.621 55.6583 143.695 56.249C143.756 56.8029 143.818 57.3567 143.867 57.9105C143.929 58.5135 143.99 59.1166 144.039 59.7196C144.088 60.2857 144.125 60.8518 144.162 61.4179C144.199 62.0333 144.248 62.6486 144.273 63.2763C144.31 63.8547 144.335 64.4331 144.347 65.0115C144.371 65.6392 144.396 66.2669 144.408 66.8945C144.421 67.4483 144.433 68.0021 144.433 68.5559C144.445 69.3436 144.445 70.1435 144.445 70.9435C144.445 71.485 144.433 72.0142 144.433 72.5557C144.421 73.3802 144.396 74.2171 144.359 75.054C144.335 75.5832 144.322 76.1001 144.298 76.6292C144.248 77.5523 144.199 78.4753 144.138 79.3983C144.113 79.8537 144.088 80.2967 144.052 80.7521C143.941 82.1427 143.818 83.5334 143.682 84.9487C143.522 86.4255 143.35 87.9147 143.153 89.3915C143.129 89.5515 143.116 89.7238 143.092 89.8838C142.895 91.2868 142.685 92.6897 142.464 94.0804C142.427 94.3019 142.39 94.5358 142.353 94.7573C142.119 96.1234 141.873 97.4894 141.615 98.8555C141.566 99.0893 141.516 99.3232 141.479 99.5693C141.209 100.935 140.913 102.301 140.606 103.667C140.556 103.877 140.507 104.086 140.458 104.295C140.15 105.637 139.83 106.978 139.486 108.307V108.319C139.141 109.661 138.784 110.99 138.403 112.307C138.341 112.516 138.292 112.725 138.23 112.935C137.873 114.202 137.492 115.457 137.098 116.713C137.024 116.959 136.95 117.193 136.877 117.439C136.483 118.706 136.064 119.962 135.646 121.205C135.597 121.365 135.535 121.525 135.474 121.685C135.055 122.915 134.612 124.146 134.169 125.352C134.132 125.463 134.083 125.574 134.046 125.697C133.578 126.94 133.098 128.183 132.606 129.413C132.52 129.635 132.422 129.869 132.335 130.09C131.855 131.296 131.351 132.49 130.846 133.672C130.748 133.881 130.662 134.102 130.563 134.312C130.034 135.53 129.493 136.736 128.939 137.942C128.902 138.028 128.865 138.102 128.828 138.188C128.286 139.357 127.733 140.514 127.167 141.671C127.08 141.831 127.007 142.003 126.92 142.163C126.354 143.32 125.764 144.452 125.173 145.597C125.062 145.819 124.939 146.028 124.828 146.249C124.237 147.382 123.622 148.489 123.007 149.597C122.908 149.769 122.81 149.941 122.711 150.114C122.071 151.246 121.432 152.366 120.779 153.473C120.755 153.51 120.742 153.535 120.718 153.572C120.053 154.692 119.376 155.799 118.687 156.882C118.576 157.067 118.465 157.239 118.342 157.424C117.678 158.47 117.001 159.504 116.324 160.525C116.189 160.722 116.066 160.907 115.93 161.104C115.229 162.138 114.527 163.159 113.813 164.168C113.727 164.279 113.654 164.39 113.567 164.513C112.866 165.497 112.152 166.47 111.426 167.429C111.352 167.528 111.278 167.639 111.192 167.737C110.392 168.796 109.58 169.829 108.768 170.851C108.645 170.998 108.534 171.146 108.411 171.294C107.611 172.278 106.799 173.263 105.986 174.211C105.851 174.371 105.716 174.531 105.568 174.691C104.756 175.638 103.931 176.573 103.094 177.484C102.959 177.632 102.823 177.78 102.688 177.927C101.839 178.85 100.977 179.749 100.116 180.635C100.005 180.746 99.9068 180.856 99.796 180.955C98.8976 181.878 97.9869 182.776 97.0638 183.65C97.0269 183.675 97.0023 183.711 96.9654 183.736C96.0423 184.61 95.1071 185.459 94.1718 186.296C94.0979 186.37 94.0118 186.431 93.9379 186.505C93.0272 187.317 92.1042 188.093 91.1689 188.856C91.0335 188.967 90.9104 189.077 90.775 189.188C89.8643 189.926 88.9536 190.64 88.0429 191.329C87.8706 191.453 87.6983 191.588 87.5383 191.711C86.763 192.289 85.9999 192.855 85.2123 193.397C85.1385 193.446 85.0646 193.495 84.9908 193.545C84.2647 194.049 83.5386 194.529 82.8124 195.009C82.6278 195.132 82.431 195.255 82.2464 195.378C81.4587 195.883 80.671 196.375 79.8834 196.843C79.7726 196.904 79.6742 196.966 79.5635 197.028C78.8497 197.446 78.1358 197.852 77.422 198.246C77.2374 198.344 77.0529 198.455 76.8683 198.554C76.0683 198.984 75.2684 199.39 74.4684 199.797C74.333 199.858 74.21 199.92 74.0746 199.981C73.3608 200.326 72.6593 200.658 71.9455 200.966C71.7609 201.052 71.5763 201.126 71.404 201.212C70.6041 201.556 69.7918 201.901 68.9795 202.209C68.8318 202.27 68.6719 202.319 68.5242 202.381C67.8104 202.652 67.1089 202.91 66.3951 203.144C66.2105 203.206 66.0136 203.279 65.829 203.341C65.3859 203.489 64.9429 203.624 64.4875 203.759C64.2783 203.821 64.0568 203.895 63.8476 203.956C63.1953 204.153 62.5307 204.326 61.8662 204.498C55.7004 206.061 49.8423 206.467 44.3534 205.827C41.0675 205.445 37.9046 204.67 34.9141 203.55L59.1094 212.596C67.1089 215.586 76.2037 216.054 86.0615 213.543C86.7261 213.371 87.3783 213.199 88.0429 213.002C88.2644 212.94 88.4736 212.866 88.6952 212.805C89.1382 212.67 89.5813 212.534 90.0243 212.387C90.0982 212.362 90.172 212.337 90.2582 212.313C90.3689 212.276 90.4797 212.227 90.6027 212.19C91.3165 211.943 92.0181 211.697 92.7196 211.427C92.8672 211.365 93.0272 211.316 93.1749 211.254C93.9872 210.934 94.7871 210.602 95.5993 210.257C95.7839 210.184 95.9685 210.097 96.1408 210.011C96.8546 209.691 97.5561 209.371 98.2699 209.027C98.4053 208.965 98.5283 208.904 98.6637 208.842C99.4637 208.448 100.264 208.03 101.051 207.611C101.236 207.513 101.42 207.402 101.605 207.304C102.319 206.91 103.033 206.504 103.746 206.085C103.857 206.024 103.956 205.962 104.066 205.901C104.854 205.433 105.642 204.941 106.429 204.436C106.614 204.313 106.811 204.19 106.996 204.067C107.722 203.587 108.448 203.107 109.174 202.603C109.248 202.553 109.322 202.504 109.395 202.455C110.171 201.913 110.946 201.347 111.721 200.769C111.808 200.707 111.894 200.646 111.98 200.572C112.066 200.51 112.14 200.437 112.226 200.375C113.137 199.686 114.047 198.972 114.958 198.234C115.093 198.123 115.229 198.012 115.364 197.901C116.287 197.138 117.21 196.363 118.133 195.551C118.207 195.477 118.293 195.415 118.367 195.341C119.302 194.505 120.238 193.655 121.161 192.782C121.198 192.757 121.222 192.72 121.259 192.696C122.182 191.822 123.093 190.923 123.991 190C124.102 189.89 124.201 189.791 124.311 189.68C125.173 188.794 126.034 187.896 126.883 186.973C127.019 186.825 127.154 186.677 127.29 186.53C128.126 185.619 128.951 184.684 129.763 183.736C129.899 183.576 130.046 183.416 130.182 183.256C130.994 182.296 131.806 181.324 132.606 180.339C132.729 180.192 132.84 180.044 132.963 179.896C133.775 178.875 134.588 177.841 135.388 176.783C135.412 176.758 135.424 176.733 135.449 176.697C135.498 176.623 135.56 176.549 135.609 176.475C136.335 175.515 137.049 174.543 137.75 173.558C137.837 173.448 137.91 173.337 137.997 173.214C138.71 172.205 139.412 171.183 140.113 170.149C140.249 169.952 140.372 169.768 140.507 169.571C141.184 168.549 141.861 167.516 142.525 166.47C142.636 166.285 142.759 166.1 142.87 165.928C143.559 164.833 144.236 163.725 144.901 162.617C144.925 162.581 144.938 162.556 144.95 162.519C145.602 161.411 146.254 160.291 146.882 159.159C146.981 158.987 147.079 158.815 147.178 158.63C147.793 157.522 148.396 156.415 148.987 155.295C149.097 155.073 149.22 154.852 149.331 154.63C149.922 153.498 150.513 152.354 151.079 151.197C151.153 151.037 151.239 150.877 151.313 150.704C151.879 149.548 152.433 148.378 152.986 147.209C153.023 147.135 153.06 147.049 153.097 146.975C153.651 145.769 154.192 144.563 154.722 143.345C154.82 143.136 154.906 142.914 155.005 142.705C155.509 141.523 156.014 140.33 156.494 139.124C156.58 138.902 156.678 138.681 156.765 138.447C157.257 137.216 157.737 135.973 158.204 134.718C158.241 134.607 158.278 134.496 158.328 134.385C158.783 133.167 159.214 131.936 159.632 130.706C159.694 130.546 159.743 130.386 159.804 130.226C160.235 128.97 160.641 127.715 161.035 126.46C161.109 126.214 161.183 125.98 161.257 125.734C161.65 124.478 162.02 123.223 162.389 121.956C162.45 121.746 162.512 121.537 162.561 121.328C162.93 119.999 163.299 118.67 163.644 117.34C163.989 115.999 164.309 114.658 164.616 113.316C164.641 113.181 164.678 113.045 164.715 112.91C164.727 112.836 164.739 112.762 164.764 112.688C165.072 111.322 165.355 109.956 165.638 108.59C165.687 108.356 165.736 108.123 165.773 107.876C166.044 106.51 166.29 105.144 166.512 103.778C166.549 103.557 166.585 103.323 166.622 103.101C166.856 101.698 167.065 100.308 167.25 98.9047C167.275 98.7447 167.287 98.5724 167.312 98.4124C167.508 96.9356 167.693 95.4588 167.841 93.9697C167.988 92.5544 168.111 91.1637 168.21 89.773C168.247 89.3176 168.271 88.8623 168.296 88.4193C168.358 87.4962 168.419 86.5609 168.456 85.6502C168.481 85.121 168.493 84.6041 168.518 84.0749C168.542 83.238 168.579 82.4135 168.591 81.5889C168.604 81.0474 168.604 80.5059 168.604 79.9644C168.604 79.1645 168.604 78.3768 168.604 77.5769C168.604 77.2815 168.604 76.9862 168.604 76.6908C168.604 76.4323 168.579 76.1739 168.579 75.9031C168.567 75.2755 168.542 74.6355 168.518 74.0202C168.493 73.4418 168.468 72.8633 168.444 72.2849C168.407 71.6696 168.37 71.0542 168.333 70.4389C168.296 69.8728 168.247 69.2943 168.21 68.7405C168.161 68.1375 168.099 67.5345 168.038 66.9314C167.976 66.3776 167.927 65.8238 167.865 65.27C167.792 64.6793 167.718 64.0885 167.644 63.4978C167.57 62.9563 167.496 62.4148 167.422 61.8856C167.336 61.3072 167.238 60.7288 167.152 60.1503C167.065 59.6211 166.979 59.0919 166.881 58.575C166.782 58.0089 166.672 57.4428 166.561 56.889C166.462 56.3721 166.364 55.8675 166.253 55.3629C166.13 54.8091 166.007 54.2553 165.884 53.7138C165.773 53.2215 165.65 52.717 165.527 52.237C165.392 51.6955 165.244 51.1663 165.096 50.6248C164.998 50.2679 164.912 49.8987 164.813 49.5418C164.789 49.431 164.752 49.3326 164.715 49.2341C164.444 48.2865 164.149 47.3512 163.853 46.4282C163.804 46.2805 163.767 46.1328 163.718 45.9851C163.361 44.9267 162.992 43.8806 162.61 42.8592C162.5 42.5515 162.377 42.2561 162.253 41.9608C161.97 41.247 161.687 40.5455 161.392 39.844C161.232 39.4871 161.072 39.1302 160.924 38.7733C160.641 38.1456 160.358 37.518 160.05 36.9149C159.878 36.5703 159.706 36.2134 159.534 35.8688C159.214 35.2412 158.894 34.6382 158.561 34.0228C158.401 33.7274 158.241 33.4198 158.069 33.1244C157.614 32.3245 157.158 31.5491 156.678 30.7984C156.629 30.7123 156.58 30.6261 156.518 30.54C155.989 29.7031 155.435 28.8908 154.869 28.0909C154.697 27.8448 154.512 27.6109 154.34 27.3771C153.934 26.8356 153.528 26.2941 153.122 25.7649C152.949 25.5187 152.728 25.248 152.494 24.9772Z" fill="url(#paint4_linear_15470_1847)"/>
<path d="M167.312 98.9539C167.337 98.7939 167.349 98.6217 167.373 98.4617C167.57 96.9848 167.755 95.508 167.903 94.0189C168.05 92.6036 168.173 91.2129 168.272 89.8222C168.309 89.3669 168.333 88.9115 168.358 88.4685C168.42 87.5455 168.481 86.6101 168.518 85.6994C168.543 85.1702 168.555 84.6533 168.58 84.1241C168.604 83.2873 168.641 82.4627 168.653 81.6381C168.666 81.0966 168.666 80.5551 168.666 80.0136C168.666 79.2137 168.666 78.426 168.666 77.6261C168.666 77.3307 168.666 77.0354 168.666 76.74C168.666 76.4816 168.641 76.2231 168.641 75.9524C168.629 75.3247 168.604 74.6848 168.58 74.0694C168.555 73.491 168.53 72.9126 168.506 72.3341C168.469 71.7188 168.432 71.1035 168.395 70.4881C168.358 69.922 168.309 69.3436 168.272 68.7898C168.223 68.1867 168.161 67.5837 168.1 66.9806C168.038 66.4268 167.989 65.873 167.927 65.3192C167.853 64.7285 167.78 64.1378 167.706 63.547C167.632 63.0055 167.558 62.464 167.484 61.9348C167.398 61.3564 167.3 60.778 167.214 60.1996C167.127 59.6704 167.041 59.1412 166.943 58.6243C166.844 58.0582 166.734 57.492 166.623 56.9382C166.524 56.4213 166.426 55.9168 166.315 55.4122C166.192 54.8584 166.069 54.3046 165.946 53.7631C165.835 53.2708 165.712 52.7662 165.589 52.2862C165.454 51.7447 165.306 51.2155 165.158 50.674C165.06 50.3171 164.974 49.9479 164.875 49.591C164.851 49.4803 164.814 49.3818 164.777 49.2833C164.506 48.3357 164.211 47.4004 163.915 46.4774C163.866 46.3297 163.829 46.182 163.78 46.0343C163.423 44.9759 163.054 43.9298 162.672 42.9084C162.561 42.6007 162.438 42.3053 162.315 42.01C162.032 41.2962 161.749 40.5947 161.454 39.8932C161.294 39.5363 161.134 39.1794 160.986 38.8225C160.703 38.1948 160.42 37.5672 160.112 36.9641C159.94 36.6196 159.768 36.2627 159.596 35.9181C159.276 35.2904 158.956 34.6874 158.623 34.072C158.463 33.7767 158.303 33.469 158.131 33.1736C157.676 32.3737 157.22 31.5983 156.74 30.8476C156.691 30.7615 156.642 30.6753 156.58 30.5892C156.051 29.7523 155.497 28.9401 154.931 28.1401C154.759 27.894 154.574 27.6601 154.402 27.4263C153.996 26.8848 153.59 26.3433 153.184 25.8141C152.962 25.5434 152.741 25.2726 152.519 25.0019C152.125 24.5219 151.731 24.0542 151.325 23.5989C151.092 23.3404 150.858 23.082 150.624 22.8235C150.193 22.3559 149.75 21.9005 149.307 21.4575C149.098 21.2483 148.889 21.0267 148.667 20.8175C148.039 20.2145 147.399 19.6238 146.747 19.0699C146.71 19.033 146.673 18.9961 146.636 18.9715C145.947 18.3808 145.233 17.8269 144.52 17.2854C144.298 17.1131 144.064 16.9532 143.83 16.7932C143.326 16.424 142.821 16.0794 142.304 15.7348C142.034 15.5502 141.751 15.3779 141.468 15.2056C140.975 14.8979 140.483 14.6025 139.978 14.3195C139.695 14.1595 139.412 13.9995 139.117 13.8395C138.575 13.5565 138.034 13.2857 137.492 13.0273C137.234 12.9042 136.988 12.7811 136.729 12.6581C135.917 12.2888 135.105 11.9443 134.268 11.6366L110.023 2.56641C110.86 2.87408 111.673 3.21867 112.485 3.58788C112.743 3.71095 113.002 3.83402 113.248 3.95708C113.802 4.21553 114.343 4.48628 114.872 4.76934C115.168 4.92933 115.451 5.08932 115.734 5.24931C116.238 5.53237 116.731 5.82773 117.223 6.1354C117.506 6.3077 117.777 6.48 118.06 6.6646C118.577 7.00919 119.081 7.35379 119.586 7.72299C119.82 7.88298 120.041 8.04297 120.275 8.21527C121.001 8.75677 121.703 9.31058 122.392 9.90131C122.429 9.93823 122.466 9.96284 122.503 9.99977C123.155 10.5659 123.795 11.1443 124.422 11.7473C124.644 11.9566 124.853 12.1781 125.062 12.3873C125.505 12.8303 125.949 13.2857 126.392 13.7534C126.625 14.0118 126.859 14.2703 127.093 14.5287C127.499 14.9841 127.905 15.4517 128.299 15.9317C128.521 16.2024 128.742 16.4732 128.964 16.7439C129.382 17.2731 129.788 17.8146 130.182 18.3561C130.354 18.59 130.539 18.8238 130.711 19.0699C131.277 19.8699 131.831 20.6821 132.36 21.519C132.41 21.6052 132.459 21.6913 132.508 21.7775C132.988 22.5405 133.456 23.3158 133.899 24.1158C134.071 24.4111 134.219 24.7065 134.391 25.0019C134.723 25.6049 135.056 26.2202 135.363 26.8479C135.536 27.1925 135.708 27.5371 135.88 27.894C136.176 28.5093 136.471 29.1247 136.754 29.7523C136.914 30.1092 137.074 30.4538 137.222 30.823C137.517 31.5122 137.8 32.226 138.083 32.9275C138.206 33.2352 138.329 33.5305 138.44 33.8382C138.822 34.8597 139.203 35.8935 139.548 36.9518C139.597 37.0995 139.634 37.2472 139.683 37.3949C139.978 38.3179 140.274 39.2532 140.544 40.2009C140.68 40.6685 140.803 41.1362 140.926 41.6038C141.074 42.133 141.221 42.6745 141.357 43.2037C141.48 43.696 141.591 44.1883 141.714 44.6929C141.837 45.2344 141.972 45.7882 142.083 46.342C142.194 46.8466 142.292 47.3635 142.391 47.868C142.501 48.4342 142.612 48.988 142.711 49.5541C142.809 50.071 142.895 50.6002 142.981 51.1294C143.08 51.7078 143.166 52.2862 143.252 52.8646C143.326 53.3938 143.4 53.9353 143.474 54.4769C143.547 55.0676 143.621 55.6583 143.695 56.249C143.757 56.8028 143.818 57.3567 143.867 57.9105C143.929 58.5135 143.99 59.1165 144.04 59.7196C144.089 60.2857 144.126 60.8518 144.163 61.4179C144.2 62.0333 144.249 62.6486 144.273 63.2763C144.31 63.8547 144.335 64.4331 144.347 65.0115C144.372 65.6392 144.397 66.2668 144.409 66.8945C144.421 67.4483 144.433 68.0021 144.433 68.5559C144.446 69.3436 144.446 70.1435 144.446 70.9435C144.446 71.485 144.433 72.0142 144.433 72.5557C144.421 73.3802 144.397 74.2171 144.36 75.054C144.335 75.5832 144.323 76.1001 144.298 76.6292C144.249 77.5523 144.2 78.4753 144.138 79.3983C144.113 79.8536 144.089 80.2967 144.052 80.7521C143.941 82.1427 143.818 83.5334 143.683 84.9487L167.09 100.222C167.177 99.8277 167.25 99.3847 167.312 98.9539Z" fill="url(#paint5_linear_15470_1847)"/>
<path opacity="0.5" d="M49.2402 108.689C48.3664 117.094 49.7817 124.54 53.2399 129.66C57.0058 135.235 62.9008 137.487 69.3865 135.838C82.0626 132.613 93.8895 115.408 95.7602 97.4772C96.634 89.0716 95.2187 81.6136 91.7605 76.5063C87.9945 70.9313 82.1119 68.6791 75.6138 70.3282C62.95 73.5526 51.1108 90.7577 49.2402 108.689ZM75.8353 71.1651C88.2038 68.0268 96.7447 79.7553 94.8987 97.3911C93.065 115.015 81.5458 131.85 69.1773 134.989C56.8089 138.139 48.2679 126.398 50.1017 108.775C51.9477 91.1515 63.4669 74.3157 75.8353 71.1651Z" fill="url(#paint6_linear_15470_1847)"/>
<path opacity="0.5" d="M1.30361 121.193C-4.54216 177.226 22.6069 214.541 61.9397 204.547C101.26 194.554 137.873 141.019 143.707 84.986C149.552 28.9528 122.403 -8.37401 83.0829 1.61918C43.7501 11.6247 7.13707 65.1473 1.30361 121.193ZM83.3044 2.46836C102.651 -2.45439 119.499 3.99441 130.735 20.621C141.245 36.1769 145.553 58.9939 142.845 84.8999C137.049 140.515 100.657 193.804 61.7181 203.711C42.3594 208.633 25.5112 202.185 14.275 185.558C3.76496 170.002 -0.5301 147.185 2.16511 121.304C7.96165 65.6642 44.3531 12.3631 83.3044 2.46836Z" fill="url(#paint7_linear_15470_1847)"/>
<defs>
<linearGradient id="paint0_linear_15470_1847" x1="79.7732" y1="119.087" x2="80.4283" y2="143.327" gradientUnits="userSpaceOnUse">
<stop offset="0.0411" stop-color="#92C0FF"/>
<stop offset="0.3363" stop-color="#95C3FF"/>
<stop offset="0.5969" stop-color="#A0CBFF"/>
<stop offset="0.8436" stop-color="#B2D8FF"/>
<stop offset="0.8946" stop-color="#B7DCFF"/>
</linearGradient>
<linearGradient id="paint1_linear_15470_1847" x1="63.0921" y1="125.338" x2="96.5051" y2="53.9266" gradientUnits="userSpaceOnUse">
<stop offset="0.0647" stop-color="#00338E"/>
<stop offset="1" stop-color="#00B2F1"/>
</linearGradient>
<linearGradient id="paint2_linear_15470_1847" x1="-8.32826" y1="109.86" x2="143.999" y2="97.0847" gradientUnits="userSpaceOnUse">
<stop offset="0.00150876" stop-color="white"/>
<stop offset="1" stop-color="#AFD8FF"/>
</linearGradient>
<linearGradient id="paint3_linear_15470_1847" x1="142.616" y1="43.006" x2="24.688" y2="64.6262" gradientUnits="userSpaceOnUse">
<stop stop-color="#0081F1"/>
<stop offset="1" stop-color="#00B2F1"/>
</linearGradient>
<linearGradient id="paint4_linear_15470_1847" x1="125.354" y1="90.8612" x2="78.3707" y2="209.239" gradientUnits="userSpaceOnUse">
<stop offset="0.0411" stop-color="#92C0FF"/>
<stop offset="0.3363" stop-color="#95C3FF"/>
<stop offset="0.5969" stop-color="#A0CBFF"/>
<stop offset="0.8436" stop-color="#B2D8FF"/>
<stop offset="0.8946" stop-color="#B7DCFF"/>
</linearGradient>
<linearGradient id="paint5_linear_15470_1847" x1="125.574" y1="121.772" x2="144.574" y2="18.9133" gradientUnits="userSpaceOnUse">
<stop offset="0.0647" stop-color="#00338E"/>
<stop offset="1" stop-color="#00B2F1"/>
</linearGradient>
<linearGradient id="paint6_linear_15470_1847" x1="145.297" y1="118.197" x2="17.8823" y2="91.7371" gradientUnits="userSpaceOnUse">
<stop stop-color="#8CB6F0"/>
<stop offset="0.1773" stop-color="#A1C4F3"/>
<stop offset="0.5239" stop-color="#C3DBF8"/>
<stop offset="0.8089" stop-color="#D9E9FB"/>
<stop offset="0.995" stop-color="#E0EEFC"/>
</linearGradient>
<linearGradient id="paint7_linear_15470_1847" x1="144.866" y1="118.108" x2="18.1957" y2="91.803" gradientUnits="userSpaceOnUse">
<stop stop-color="#8CB6F0"/>
<stop offset="0.1773" stop-color="#A1C4F3"/>
<stop offset="0.5239" stop-color="#C3DBF8"/>
<stop offset="0.8089" stop-color="#D9E9FB"/>
<stop offset="0.995" stop-color="#E0EEFC"/>
</linearGradient>
</defs>
</svg>
